<?xml version="1.0" encoding="UTF-8" standalone="no"?>
<!-- Created with Inkscape (http://www.inkscape.org/) -->

<svg
   xmlns:dc="http://purl.org/dc/elements/1.1/"
   xmlns:cc="http://creativecommons.org/ns#"
   xmlns:rdf="http://www.w3.org/1999/02/22-rdf-syntax-ns#"
   xmlns:svg="http://www.w3.org/2000/svg"
   xmlns:xlink="http://www.w3.org/1999/xlink"
   xmlns="http://www.w3.org/2000/svg"
   xmlns:sodipodi="http://sodipodi.sourceforge.net/DTD/sodipodi-0.dtd"
   xmlns:inkscape="http://www.inkscape.org/namespaces/inkscape"
   version="1.1"
   id="svg29"
   xml:space="preserve"
   width="666.66669"
   height="666.66669"
   viewBox="0 0 666.66669 666.66669"
   sodipodi:docname="220886-P16W9L-44.svg"
   inkscape:version="0.92.5 (2060ec1f9f, 2020-04-08)"><metadata
     id="metadata35"><rdf:RDF><cc:Work
         rdf:about=""><dc:format>image/svg+xml</dc:format><dc:type
           rdf:resource="http://purl.org/dc/dcmitype/StillImage" /><dc:title></dc:title></cc:Work></rdf:RDF></metadata><defs
     id="defs33"><clipPath
       clipPathUnits="userSpaceOnUse"
       id="clipPath51"><path
         d="M 0,500 H 500 V 0 H 0 Z"
         id="path49"
         inkscape:connector-curvature="0" /></clipPath><clipPath
       clipPathUnits="userSpaceOnUse"
       id="clipPath99"><path
         d="m 149.187,355.93 h 24.579 v -24.578 h -24.579 z"
         id="path97"
         inkscape:connector-curvature="0" /></clipPath><clipPath
       clipPathUnits="userSpaceOnUse"
       id="clipPath163"><path
         d="m 326.555,355.93 h 24.578 v -24.578 h -24.578 z"
         id="path161"
         inkscape:connector-curvature="0" /></clipPath><clipPath
       clipPathUnits="userSpaceOnUse"
       id="clipPath233"><path
         d="M 130.539,210.982 H 369.458 V 176.29 H 130.539 Z"
         id="path231"
         inkscape:connector-curvature="0" /></clipPath><clipPath
       clipPathUnits="userSpaceOnUse"
       id="clipPath279"><path
         d="M 139.344,270.804 H 264.841 V 256.901 H 139.344 Z"
         id="path277"
         inkscape:connector-curvature="0" /></clipPath><clipPath
       clipPathUnits="userSpaceOnUse"
       id="clipPath295"><path
         d="m 139.344,195.036 h 97.835 v -13.903 h -97.835 z"
         id="path293"
         inkscape:connector-curvature="0" /></clipPath><clipPath
       clipPathUnits="userSpaceOnUse"
       id="clipPath311"><path
         d="m 130.539,315.031 h 238.919 v -69.37 H 130.539 Z"
         id="path309"
         inkscape:connector-curvature="0" /></clipPath><clipPath
       clipPathUnits="userSpaceOnUse"
       id="clipPath327"><path
         d="m 250.002,315.035 h 69.254 v -69.37 h -69.254 z"
         id="path325"
         inkscape:connector-curvature="0" /></clipPath><clipPath
       clipPathUnits="userSpaceOnUse"
       id="clipPath355"><path
         d="M 0,500 H 500 V 0 H 0 Z"
         id="path353"
         inkscape:connector-curvature="0" /></clipPath><clipPath
       clipPathUnits="userSpaceOnUse"
       id="clipPath397"><path
         d="m 373.241,158.08 h 81.477 v -11.822 h -81.477 z"
         id="path395"
         inkscape:connector-curvature="0" /></clipPath><clipPath
       clipPathUnits="userSpaceOnUse"
       id="clipPath413"><path
         d="m 408.761,247.985 h 33.68 v -89.97 h -33.68 z"
         id="path411"
         inkscape:connector-curvature="0" /></clipPath><clipPath
       clipPathUnits="userSpaceOnUse"
       id="clipPath429"><path
         d="m 398.084,222.135 h 14.232 v -52.989 h -14.232 z"
         id="path427"
         inkscape:connector-curvature="0" /></clipPath><clipPath
       clipPathUnits="userSpaceOnUse"
       id="clipPath459"><path
         d="M 45.2822,158.08 H 126.759 V 146.258 H 45.2822 Z"
         id="path457"
         inkscape:connector-curvature="0" /></clipPath><clipPath
       clipPathUnits="userSpaceOnUse"
       id="clipPath475"><path
         d="m 80.8025,247.985 h 33.6795 v -89.97 H 80.8025 Z"
         id="path473"
         inkscape:connector-curvature="0" /></clipPath><clipPath
       clipPathUnits="userSpaceOnUse"
       id="clipPath491"><path
         d="M 70.126,222.135 H 84.358 V 169.146 H 70.126 Z"
         id="path489"
         inkscape:connector-curvature="0" /></clipPath><clipPath
       clipPathUnits="userSpaceOnUse"
       id="clipPath519"><path
         d="M 0,500 H 500 V 0 H 0 Z"
         id="path517"
         inkscape:connector-curvature="0" /></clipPath></defs><sodipodi:namedview
     pagecolor="#ffffff"
     bordercolor="#666666"
     borderopacity="1"
     objecttolerance="10"
     gridtolerance="10"
     guidetolerance="10"
     inkscape:pageopacity="0"
     inkscape:pageshadow="2"
     inkscape:window-width="1920"
     inkscape:window-height="1027"
     id="namedview31"
     showgrid="false"
     inkscape:zoom="1.248"
     inkscape:cx="333.33334"
     inkscape:cy="333.33334"
     inkscape:window-x="0"
     inkscape:window-y="25"
     inkscape:window-maximized="1"
     inkscape:current-layer="g37" /><g
     id="g37"
     inkscape:groupmode="layer"
     inkscape:label="220886-P16W9L-44"
     transform="matrix(1.3333333,0,0,-1.3333333,0,666.66667)"><path
       d="m 0,0.001 h 500 v 500 H 0 Z"
       style="fill:#dce4e9;fill-opacity:1;fill-rule:nonzero;stroke:none"
       id="path39"
       inkscape:connector-curvature="0" /><path
       d="m 0,0.001 h 500 v 500 H 0 Z"
       style="fill:#dce4e9;fill-opacity:1;fill-rule:nonzero;stroke:none"
       id="path41"
       inkscape:connector-curvature="0" /><path
       d="M 0.002,0 H 500.001 V 500 H 0.002 Z"
       style="fill:#dce4e9;fill-opacity:1;fill-rule:nonzero;stroke:none"
       id="path43"
       inkscape:connector-curvature="0" /><g
       id="g45"><g
         id="g47"
         clip-path="url(#clipPath51)"><g
           id="g53"
           transform="translate(482.2781,142.3827)"><path
             d="m 0,0 c 0,-7.563 -103.994,-13.694 -232.278,-13.694 -128.284,0 -232.278,6.131 -232.278,13.694 0,7.562 103.994,13.694 232.278,13.694 C -103.994,13.694 0,7.562 0,0"
             style="fill:#b2c4ce;fill-opacity:1;fill-rule:nonzero;stroke:none"
             id="path55"
             inkscape:connector-curvature="0" /></g><g
           id="g57"
           transform="translate(172.9988,319.9677)"><path
             d="M 0,0 V -5.738 H -23.368 V 0 c 0,0.083 0,0.166 0.014,0.249 0.125,3.401 2.917,6.111 6.347,6.111 h 10.66 c 1.95,0 3.706,-0.898 4.882,-2.295 C -0.553,2.973 0,1.549 0,0"
             style="fill:#667273;fill-opacity:1;fill-rule:nonzero;stroke:none"
             id="path59"
             inkscape:connector-curvature="0" /></g><path
           d="m 168.464,158.011 h -14.297 v 157.021 h 14.297 z"
           style="fill:#667273;fill-opacity:1;fill-rule:nonzero;stroke:none"
           id="path61"
           inkscape:connector-curvature="0" /><path
           d="m 183.286,146.258 h -43.942 v 11.822 h 43.942 z"
           style="fill:#667273;fill-opacity:1;fill-rule:nonzero;stroke:none"
           id="path63"
           inkscape:connector-curvature="0" /><g
           id="g65"
           transform="translate(183.2864,158.08)"><path
             d="m 0,0 v -11.822 h -22.096 c -0.65,4.037 -4.148,7.107 -8.365,7.107 H -43.942 V 0 Z"
             style="fill:#606060;fill-opacity:1;fill-rule:nonzero;stroke:none"
             id="path67"
             inkscape:connector-curvature="0" /></g><g
           id="g69"
           transform="translate(172.9988,319.9677)"><path
             d="m 0,0 v -5.738 h -4.535 v -156.219 h -7.163 c -0.069,2.558 -0.871,4.908 -2.212,6.886 -1.175,1.728 -2.752,3.167 -4.605,4.176 -0.11,0.055 -0.207,0.11 -0.318,0.166 v 13.26 h 7.149 v 44.26 c 0,2.752 -0.829,5.31 -2.267,7.439 -1.231,1.826 -2.904,3.333 -4.882,4.342 v 13.122 h 7.149 v 55.82 c 0,2.475 -0.705,4.784 -1.936,6.748 -0.151,0.277 -0.331,0.539 -0.539,0.802 -0.373,0.539 -0.816,1.051 -1.299,1.521 -1.148,1.147 -2.531,2.074 -4.052,2.724 -1.189,0.498 -2.489,0.829 -3.844,0.94 0.125,3.401 2.917,6.111 6.347,6.111 h 10.66 c 1.95,0 3.706,-0.898 4.882,-2.295 C -0.553,2.973 0,1.549 0,0"
             style="fill:#606060;fill-opacity:1;fill-rule:nonzero;stroke:none"
             id="path71"
             inkscape:connector-curvature="0" /></g><g
           id="g73"
           transform="translate(179.5828,343.641)"><path
             d="m 0,0 c 0,-10 -8.106,-18.106 -18.106,-18.106 -10,0 -18.107,8.106 -18.107,18.106 0,10 8.107,18.107 18.107,18.107 C -8.106,18.107 0,10 0,0"
             style="fill:#f04736;fill-opacity:1;fill-rule:nonzero;stroke:none"
             id="path75"
             inkscape:connector-curvature="0" /></g><g
           id="g77"
           transform="translate(174.8792,336.1273)"><path
             d="M 0,0 C -1.179,-2.098 -2.835,-3.891 -4.823,-5.232"
             style="fill:none;stroke:#ffdb04;stroke-width:1;stroke-linecap:round;stroke-linejoin:miter;stroke-miterlimit:10;stroke-dasharray:none;stroke-opacity:1"
             id="path79"
             inkscape:connector-curvature="0" /></g><g
           id="g81"
           transform="translate(165.4275,328.7914)"><path
             d="M 0,0 C -1.082,-0.287 -2.21,-0.459 -3.371,-0.502"
             style="fill:none;stroke:#ffdb04;stroke-width:1;stroke-linecap:round;stroke-linejoin:miter;stroke-miterlimit:10;stroke-dasharray:none;stroke-opacity:1"
             id="path83"
             inkscape:connector-curvature="0" /></g><g
           id="g85"
           transform="translate(148.9104,352.4813)"><path
             d="M 0,0 C 0.432,0.613 0.908,1.193 1.423,1.736"
             style="fill:none;stroke:#ffdb04;stroke-width:1;stroke-linecap:round;stroke-linejoin:miter;stroke-miterlimit:10;stroke-dasharray:none;stroke-opacity:1"
             id="path87"
             inkscape:connector-curvature="0" /></g><g
           id="g89"
           transform="translate(153.2244,356.6019)"><path
             d="m 0,0 c 2.383,1.521 5.215,2.402 8.252,2.402 2.762,0 5.353,-0.729 7.593,-2.005"
             style="fill:none;stroke:#ffdb04;stroke-width:1;stroke-linecap:round;stroke-linejoin:miter;stroke-miterlimit:10;stroke-dasharray:none;stroke-opacity:1"
             id="path91"
             inkscape:connector-curvature="0" /></g><g
           id="g93"><g
             id="g95" /><g
             id="g107"><g
               clip-path="url(#clipPath99)"
               id="g105"
               style="opacity:0.39999402"><g
                 transform="translate(173.7654,343.641)"
                 id="g103"><path
                   d="m 0,0 c 0,-6.787 -5.502,-12.289 -12.289,-12.289 -6.787,0 -12.289,5.502 -12.289,12.289 0,6.787 5.502,12.29 12.289,12.29 C -5.502,12.29 0,6.787 0,0"
                   style="fill:#ffdb04;fill-opacity:1;fill-rule:nonzero;stroke:none"
                   id="path101"
                   inkscape:connector-curvature="0" /></g></g></g></g><g
           id="g109"
           transform="translate(169.5481,343.641)"><path
             d="m 0,0 c 0,-4.458 -3.614,-8.071 -8.072,-8.071 -4.457,0 -8.071,3.613 -8.071,8.071 0,4.458 3.614,8.072 8.071,8.072 C -3.614,8.072 0,4.458 0,0"
             style="fill:#ffdb04;fill-opacity:1;fill-rule:nonzero;stroke:none"
             id="path111"
             inkscape:connector-curvature="0" /></g><g
           id="g113"
           transform="translate(156.8479,227.6581)"><path
             d="M 0,0 V -11.115"
             style="fill:none;stroke:#8f9b9c;stroke-width:1;stroke-linecap:round;stroke-linejoin:round;stroke-miterlimit:10;stroke-dasharray:none;stroke-opacity:1"
             id="path115"
             inkscape:connector-curvature="0" /></g><g
           id="g117"
           transform="translate(156.8479,164.1923)"><path
             d="M 0,0 V -4.287"
             style="fill:none;stroke:#8f9b9c;stroke-width:1;stroke-linecap:round;stroke-linejoin:round;stroke-miterlimit:10;stroke-dasharray:none;stroke-opacity:1"
             id="path119"
             inkscape:connector-curvature="0" /></g><g
           id="g121"
           transform="translate(350.366,319.9677)"><path
             d="M 0,0 V -5.738 H -23.367 V 0 c 0,0.083 0,0.166 0.013,0.249 0.125,3.401 2.918,6.111 6.347,6.111 h 10.66 c 1.951,0 3.706,-0.898 4.882,-2.295 C -0.553,2.973 0,1.549 0,0"
             style="fill:#667273;fill-opacity:1;fill-rule:nonzero;stroke:none"
             id="path123"
             inkscape:connector-curvature="0" /></g><path
           d="m 345.831,158.011 h -14.297 v 157.021 h 14.297 z"
           style="fill:#667273;fill-opacity:1;fill-rule:nonzero;stroke:none"
           id="path125"
           inkscape:connector-curvature="0" /><path
           d="m 360.654,146.258 h -43.943 v 11.822 h 43.943 z"
           style="fill:#667273;fill-opacity:1;fill-rule:nonzero;stroke:none"
           id="path127"
           inkscape:connector-curvature="0" /><g
           id="g129"
           transform="translate(360.6541,158.08)"><path
             d="m 0,0 v -11.822 h -22.096 c -0.65,4.037 -4.148,7.107 -8.365,7.107 H -43.943 V 0 Z"
             style="fill:#606060;fill-opacity:1;fill-rule:nonzero;stroke:none"
             id="path131"
             inkscape:connector-curvature="0" /></g><g
           id="g133"
           transform="translate(350.366,319.9677)"><path
             d="m 0,0 v -5.738 h -4.535 v -156.219 h -7.162 c -0.07,2.558 -0.871,4.908 -2.213,6.886 -1.175,1.728 -2.751,3.167 -4.604,4.176 -0.111,0.055 -0.208,0.11 -0.318,0.166 v 13.26 h 7.148 v 44.26 c 0,2.752 -0.829,5.31 -2.267,7.439 -1.231,1.826 -2.903,3.333 -4.881,4.342 v 13.122 h 7.148 v 55.82 c 0,2.475 -0.705,4.784 -1.935,6.748 -0.152,0.277 -0.332,0.539 -0.539,0.802 -0.374,0.539 -0.817,1.051 -1.3,1.521 -1.148,1.147 -2.53,2.074 -4.052,2.724 -1.189,0.498 -2.488,0.829 -3.844,0.94 0.125,3.401 2.918,6.111 6.347,6.111 h 10.66 c 1.951,0 3.706,-0.898 4.882,-2.295 C -0.553,2.973 0,1.549 0,0"
             style="fill:#606060;fill-opacity:1;fill-rule:nonzero;stroke:none"
             id="path135"
             inkscape:connector-curvature="0" /></g><g
           id="g137"
           transform="translate(356.951,343.641)"><path
             d="m 0,0 c 0,-10 -8.107,-18.106 -18.107,-18.106 -10,0 -18.107,8.106 -18.107,18.106 0,10 8.107,18.107 18.107,18.107 C -8.107,18.107 0,10 0,0"
             style="fill:#f04736;fill-opacity:1;fill-rule:nonzero;stroke:none"
             id="path139"
             inkscape:connector-curvature="0" /></g><g
           id="g141"
           transform="translate(352.2469,336.1273)"><path
             d="M 0,0 C -1.179,-2.098 -2.836,-3.891 -4.823,-5.232"
             style="fill:none;stroke:#ffdb04;stroke-width:1;stroke-linecap:round;stroke-linejoin:miter;stroke-miterlimit:10;stroke-dasharray:none;stroke-opacity:1"
             id="path143"
             inkscape:connector-curvature="0" /></g><g
           id="g145"
           transform="translate(342.7947,328.7914)"><path
             d="M 0,0 C -1.081,-0.287 -2.21,-0.459 -3.371,-0.502"
             style="fill:none;stroke:#ffdb04;stroke-width:1;stroke-linecap:round;stroke-linejoin:miter;stroke-miterlimit:10;stroke-dasharray:none;stroke-opacity:1"
             id="path147"
             inkscape:connector-curvature="0" /></g><g
           id="g149"
           transform="translate(326.2781,352.4813)"><path
             d="M 0,0 C 0.432,0.613 0.907,1.193 1.423,1.736"
             style="fill:none;stroke:#ffdb04;stroke-width:1;stroke-linecap:round;stroke-linejoin:miter;stroke-miterlimit:10;stroke-dasharray:none;stroke-opacity:1"
             id="path151"
             inkscape:connector-curvature="0" /></g><g
           id="g153"
           transform="translate(330.5916,356.6019)"><path
             d="m 0,0 c 2.384,1.521 5.215,2.402 8.252,2.402 2.762,0 5.353,-0.729 7.593,-2.005"
             style="fill:none;stroke:#ffdb04;stroke-width:1;stroke-linecap:round;stroke-linejoin:miter;stroke-miterlimit:10;stroke-dasharray:none;stroke-opacity:1"
             id="path155"
             inkscape:connector-curvature="0" /></g><g
           id="g157"><g
             id="g159" /><g
             id="g171"><g
               clip-path="url(#clipPath163)"
               id="g169"
               style="opacity:0.39999402"><g
                 transform="translate(351.1336,343.641)"
                 id="g167"><path
                   d="m 0,0 c 0,-6.787 -5.503,-12.289 -12.29,-12.289 -6.787,0 -12.289,5.502 -12.289,12.289 0,6.787 5.502,12.29 12.289,12.29 C -5.503,12.29 0,6.787 0,0"
                   style="fill:#ffdb04;fill-opacity:1;fill-rule:nonzero;stroke:none"
                   id="path165"
                   inkscape:connector-curvature="0" /></g></g></g></g><g
           id="g173"
           transform="translate(346.9158,343.641)"><path
             d="m 0,0 c 0,-4.458 -3.614,-8.071 -8.072,-8.071 -4.457,0 -8.072,3.613 -8.072,8.071 0,4.458 3.615,8.072 8.072,8.072 C -3.614,8.072 0,4.458 0,0"
             style="fill:#ffdb04;fill-opacity:1;fill-rule:nonzero;stroke:none"
             id="path175"
             inkscape:connector-curvature="0" /></g><g
           id="g177"
           transform="translate(334.2156,227.6581)"><path
             d="M 0,0 V -11.115"
             style="fill:none;stroke:#8f9b9c;stroke-width:1;stroke-linecap:round;stroke-linejoin:round;stroke-miterlimit:10;stroke-dasharray:none;stroke-opacity:1"
             id="path179"
             inkscape:connector-curvature="0" /></g><g
           id="g181"
           transform="translate(334.2156,164.1923)"><path
             d="M 0,0 V -4.287"
             style="fill:none;stroke:#8f9b9c;stroke-width:1;stroke-linecap:round;stroke-linejoin:round;stroke-miterlimit:10;stroke-dasharray:none;stroke-opacity:1"
             id="path183"
             inkscape:connector-curvature="0" /></g><path
           d="M 369.458,176.29 H 130.54 v 34.692 h 238.918 z"
           style="fill:#fffcf3;fill-opacity:1;fill-rule:nonzero;stroke:none"
           id="path185"
           inkscape:connector-curvature="0" /><g
           id="g187"
           transform="translate(156.8938,210.9823)"><path
             d="m 0,0 -26.354,-26.409 v 14.185 L -14.159,0 Z"
             style="fill:#f04736;fill-opacity:1;fill-rule:nonzero;stroke:none"
             id="path189"
             inkscape:connector-curvature="0" /></g><g
           id="g191"
           transform="translate(184.6311,210.9823)"><path
             d="M 0,0 -34.623,-34.692 H -48.796 L -14.173,0 Z"
             style="fill:#f04736;fill-opacity:1;fill-rule:nonzero;stroke:none"
             id="path193"
             inkscape:connector-curvature="0" /></g><g
           id="g195"
           transform="translate(212.3543,210.9823)"><path
             d="M 0,0 -34.623,-34.692 H -48.782 L -14.159,0 Z"
             style="fill:#f04736;fill-opacity:1;fill-rule:nonzero;stroke:none"
             id="path197"
             inkscape:connector-curvature="0" /></g><g
           id="g199"
           transform="translate(240.0916,210.9823)"><path
             d="M 0,0 -34.623,-34.692 H -48.796 L -14.173,0 Z"
             style="fill:#f04736;fill-opacity:1;fill-rule:nonzero;stroke:none"
             id="path201"
             inkscape:connector-curvature="0" /></g><g
           id="g203"
           transform="translate(267.8289,210.9823)"><path
             d="M 0,0 -34.623,-34.692 H -48.796 L -14.173,0 Z"
             style="fill:#f04736;fill-opacity:1;fill-rule:nonzero;stroke:none"
             id="path205"
             inkscape:connector-curvature="0" /></g><g
           id="g207"
           transform="translate(295.5525,210.9823)"><path
             d="M 0,0 -34.623,-34.692 H -48.796 L -14.173,0 Z"
             style="fill:#f04736;fill-opacity:1;fill-rule:nonzero;stroke:none"
             id="path209"
             inkscape:connector-curvature="0" /></g><g
           id="g211"
           transform="translate(323.2898,210.9823)"><path
             d="M 0,0 -34.623,-34.692 H -48.796 L -14.173,0 Z"
             style="fill:#f04736;fill-opacity:1;fill-rule:nonzero;stroke:none"
             id="path213"
             inkscape:connector-curvature="0" /></g><g
           id="g215"
           transform="translate(351.0125,210.9823)"><path
             d="M 0,0 -34.623,-34.692 H -48.782 L -14.158,0 Z"
             style="fill:#f04736;fill-opacity:1;fill-rule:nonzero;stroke:none"
             id="path217"
             inkscape:connector-curvature="0" /></g><g
           id="g219"
           transform="translate(369.4578,210.9823)"><path
             d="M 0,0 V -9.319 L -25.331,-34.692 H -39.504 L -4.881,0 Z"
             style="fill:#f04736;fill-opacity:1;fill-rule:nonzero;stroke:none"
             id="path221"
             inkscape:connector-curvature="0" /></g><g
           id="g223"
           transform="translate(369.4578,188.0849)"><path
             d="M 0,0 V -11.795 H -11.767 Z"
             style="fill:#f04736;fill-opacity:1;fill-rule:nonzero;stroke:none"
             id="path225"
             inkscape:connector-curvature="0" /></g><g
           id="g227"><g
             id="g229" /><g
             id="g241"><g
               clip-path="url(#clipPath233)"
               id="g239"
               style="opacity:0.30000299"><g
                 transform="translate(369.4578,210.9823)"
                 id="g237"><path
                   d="m 0,0 v -34.692 h -69.619 c -14.146,15.155 -34.291,24.612 -56.65,24.612 H -238.918 V 0 Z"
                   style="fill:#606060;fill-opacity:1;fill-rule:nonzero;stroke:none"
                   id="path235"
                   inkscape:connector-curvature="0" /></g></g></g></g><path
           d="m 369.462,245.665 h -238.92 v 69.37 h 238.92 z"
           style="fill:#fffcf3;fill-opacity:1;fill-rule:nonzero;stroke:none"
           id="path243"
           inkscape:connector-curvature="0" /><g
           id="g245"
           transform="translate(172.3523,315.0316)"><path
             d="m 0,0 -41.813,-41.896 v 22.317 L -22.261,0 Z"
             style="fill:#f04736;fill-opacity:1;fill-rule:nonzero;stroke:none"
             id="path247"
             inkscape:connector-curvature="0" /></g><g
           id="g249"
           transform="translate(216.8899,315.0316)"><path
             d="M 0,0 -69.232,-69.371 H -86.351 V -64.2 L -22.276,0 Z"
             style="fill:#f04736;fill-opacity:1;fill-rule:nonzero;stroke:none"
             id="path251"
             inkscape:connector-curvature="0" /></g><g
           id="g253"
           transform="translate(261.4129,315.0316)"><path
             d="M 0,0 -69.232,-69.371 H -91.494 L -22.262,0 Z"
             style="fill:#f04736;fill-opacity:1;fill-rule:nonzero;stroke:none"
             id="path255"
             inkscape:connector-curvature="0" /></g><g
           id="g257"
           transform="translate(305.95,315.0316)"><path
             d="M 0,0 -69.232,-69.371 H -91.494 L -22.262,0 Z"
             style="fill:#f04736;fill-opacity:1;fill-rule:nonzero;stroke:none"
             id="path259"
             inkscape:connector-curvature="0" /></g><g
           id="g261"
           transform="translate(350.4871,315.0316)"><path
             d="M 0,0 -69.232,-69.371 H -91.508 L -22.275,0 Z"
             style="fill:#f04736;fill-opacity:1;fill-rule:nonzero;stroke:none"
             id="path263"
             inkscape:connector-curvature="0" /></g><g
           id="g265"
           transform="translate(369.4578,311.7406)"><path
             d="M 0,0 V -22.303 L -43.68,-66.08 h -22.261 z"
             style="fill:#f04736;fill-opacity:1;fill-rule:nonzero;stroke:none"
             id="path267"
             inkscape:connector-curvature="0" /></g><g
           id="g269"
           transform="translate(369.4578,264.7977)"><path
             d="M 0,0 V -19.137 H -19.095 Z"
             style="fill:#f04736;fill-opacity:1;fill-rule:nonzero;stroke:none"
             id="path271"
             inkscape:connector-curvature="0" /></g><g
           id="g273"><g
             id="g275" /><g
             id="g287"><g
               clip-path="url(#clipPath279)"
               id="g285"
               style="opacity:0.30000299"><g
                 transform="translate(257.8894,256.9008)"
                 id="g283"><path
                   d="m 0,0 h -111.594 c -3.839,0 -6.951,3.112 -6.951,6.952 0,3.839 3.112,6.951 6.951,6.951 L 0,13.903 c 1.92,0 3.657,-0.778 4.916,-2.036 C 6.174,10.609 6.952,8.872 6.952,6.952 6.952,3.112 3.84,0 0,0"
                   style="fill:#fffcf3;fill-opacity:1;fill-rule:nonzero;stroke:none"
                   id="path281"
                   inkscape:connector-curvature="0" /></g></g></g></g><g
           id="g289"><g
             id="g291" /><g
             id="g303"><g
               clip-path="url(#clipPath295)"
               id="g301"
               style="opacity:0.30000299"><g
                 transform="translate(230.2278,181.1327)"
                 id="g299"><path
                   d="m 0,0 h -83.933 c -3.838,0 -6.951,3.112 -6.951,6.952 0,3.839 3.113,6.951 6.951,6.951 H 0 c 1.567,0 3.013,-0.518 4.176,-1.393 C 5.862,11.241 6.952,9.224 6.952,6.952 6.952,3.112 3.839,0 0,0"
                   style="fill:#fffcf3;fill-opacity:1;fill-rule:nonzero;stroke:none"
                   id="path297"
                   inkscape:connector-curvature="0" /></g></g></g></g><g
           id="g305"><g
             id="g307" /><g
             id="g319"><g
               clip-path="url(#clipPath311)"
               id="g317"
               style="opacity:0.30000299"><g
                 transform="translate(130.5393,315.0316)"
                 id="g315"><path
                   d="m 0,0 v -20.935 h 112.649 c 12.264,0 23.861,-2.851 34.172,-7.922 l -40.509,-40.51 h 61.445 l 15.701,15.7 c 3.443,-4.853 6.35,-10.113 8.615,-15.704 h 46.845 V 0 Z"
                   style="fill:#606060;fill-opacity:1;fill-rule:nonzero;stroke:none"
                   id="path313"
                   inkscape:connector-curvature="0" /></g></g></g></g><g
           id="g321"><g
             id="g323" /><g
             id="g335"><g
               clip-path="url(#clipPath327)"
               id="g333"
               style="opacity:0.30000299"><g
                 transform="translate(319.1424,277.1044)"
                 id="g331"><path
                   d="m 0,0 c -0.221,-1.18 -0.811,-2.33 -1.73,-3.24 l -28.191,-28.199 h -39.22 V 37.93 H -33.99 L -1.73,5.66 C -0.19,4.12 0.38,1.99 0,0"
                   style="fill:#606060;fill-opacity:1;fill-rule:nonzero;stroke:none"
                   id="path329"
                   inkscape:connector-curvature="0" /></g></g></g></g><g
           id="g337"
           transform="translate(312.2312,280.2865)"><path
             d="m 0,0 c 0,-1.205 -0.459,-2.41 -1.377,-3.327 l -61.487,-61.487 c -1.836,-1.836 -4.807,-1.836 -6.643,0 l -61.487,61.487 c -1.836,1.835 -1.836,4.807 0,6.643 l 47.156,47.145 14.331,14.342 c 1.836,1.836 4.807,1.836 6.643,0 L -1.377,3.316 C -0.459,2.398 0,1.193 0,0"
             style="fill:#ffdb04;fill-opacity:1;fill-rule:nonzero;stroke:none"
             id="path339"
             inkscape:connector-curvature="0" /></g><g
           id="g341"
           transform="translate(312.2312,280.2865)"><path
             d="m 0,0 c 0,-1.205 -0.459,-2.41 -1.377,-3.327 l -61.487,-61.487 c -1.836,-1.836 -4.807,-1.836 -6.643,0 l -11.726,11.726 25.563,25.574 c 13.757,13.757 13.757,36.05 0,49.807 l -28.168,28.168 14.331,14.342 c 1.836,1.836 4.807,1.836 6.643,0 L -1.377,3.316 C -0.459,2.398 0,1.193 0,0"
             style="fill:#f0c700;fill-opacity:1;fill-rule:nonzero;stroke:none"
             id="path343"
             inkscape:connector-curvature="0" /></g></g></g><text
       transform="matrix(1,0,0,-1,207.4141,270.0806)"
       style="font-variant:normal;font-weight:600;font-stretch:normal;font-size:37.03099823px;font-family:'Montserrat SemiBold';-inkscape-font-specification:Montserrat-SemiBold;writing-mode:lr-tb;fill:#3a4950;fill-opacity:1;fill-rule:nonzero;stroke:none"
       id="text347"><tspan
         x="0 26.551228 53.102455"
         y="0"
         sodipodi:role="line"
         id="tspan345">500</tspan></text>
<g
       id="g349"><g
         id="g351"
         clip-path="url(#clipPath355)"><g
           id="g357"
           transform="translate(193.472,278.2963)"><path
             d="m 0,0 c -0.985,0 -1.783,0.798 -1.783,1.783 0,0.985 0.798,1.783 1.783,1.783 0.984,0 1.783,-0.798 1.783,-1.783 C 1.783,0.798 0.984,0 0,0"
             style="fill:#474745;fill-opacity:1;fill-rule:nonzero;stroke:none"
             id="path359"
             inkscape:connector-curvature="0" /></g><g
           id="g361"
           transform="translate(193.8304,278.2963)"><path
             d="m 0,0 c -0.984,0 -1.783,0.798 -1.783,1.783 0,0.985 0.799,1.783 1.783,1.783 0.985,0 1.783,-0.798 1.783,-1.783 C 1.783,0.798 0.985,0 0,0"
             style="fill:#606060;fill-opacity:1;fill-rule:nonzero;stroke:none"
             id="path363"
             inkscape:connector-curvature="0" /></g><g
           id="g365"
           transform="translate(298.6551,281.8622)"><path
             d="m 0,0 c 0.985,0 1.783,-0.798 1.783,-1.783 0,-0.985 -0.798,-1.783 -1.783,-1.783 -0.984,0 -1.782,0.798 -1.782,1.783 C -1.782,-0.798 -0.984,0 0,0"
             style="fill:#474745;fill-opacity:1;fill-rule:nonzero;stroke:none"
             id="path367"
             inkscape:connector-curvature="0" /></g><g
           id="g369"
           transform="translate(298.2967,281.8622)"><path
             d="m 0,0 c 0.984,0 1.783,-0.798 1.783,-1.783 0,-0.985 -0.799,-1.783 -1.783,-1.783 -0.984,0 -1.783,0.798 -1.783,1.783 C -1.783,-0.798 -0.984,0 0,0"
             style="fill:#606060;fill-opacity:1;fill-rule:nonzero;stroke:none"
             id="path371"
             inkscape:connector-curvature="0" /></g><g
           id="g373"
           transform="translate(246.0462,338.8387)"><path
             d="m 0,0 c -0.913,0 -1.771,-0.355 -2.415,-1 l -55.142,-55.142 c -1.331,-1.332 -1.331,-3.498 0,-4.829 l 55.142,-55.142 c 1.289,-1.29 3.54,-1.29 4.829,0 l 55.143,55.142 c 0.645,0.645 1,1.503 1,2.415 0,0.912 -0.355,1.769 -1,2.414 L 2.414,-1 C 1.77,-0.355 0.913,0 0,0 m 0,-118.7 c -1.335,0 -2.592,0.52 -3.537,1.466 l -55.142,55.141 c -1.949,1.95 -1.949,5.123 0,7.072 L -3.537,0.122 c 1.89,1.89 5.185,1.89 7.073,0 l 55.143,-55.143 c 0.944,-0.944 1.464,-2.2 1.464,-3.535 0,-1.336 -0.52,-2.592 -1.464,-3.537 L 3.536,-117.234 C 2.592,-118.18 1.335,-118.7 0,-118.7"
             style="fill:#ffffff;fill-opacity:1;fill-rule:nonzero;stroke:none"
             id="path375"
             inkscape:connector-curvature="0" /></g><g
           id="g377"
           transform="translate(442.4412,158.0145)"><path
             d="m 0,0 h -56.92 l 4.27,16.49 3.599,13.99 3.011,11.61 3.6,13.98 8.759,33.9 h 10.441 l 8.75,-33.9 3.609,-13.98 3,-11.61 3.61,-13.99 z"
             style="fill:#f04736;fill-opacity:1;fill-rule:nonzero;stroke:none"
             id="path379"
             inkscape:connector-curvature="0" /></g><g
           id="g381"
           transform="translate(431.5584,200.1024)"><path
             d="m 0,0 h -35.159 l 3.603,13.985 h 27.953 z"
             style="fill:#fffcf3;fill-opacity:1;fill-rule:nonzero;stroke:none"
             id="path383"
             inkscape:connector-curvature="0" /></g><g
           id="g385"
           transform="translate(438.1668,174.5058)"><path
             d="m 0,0 h -48.375 l 3.603,13.985 h 41.169 z"
             style="fill:#fffcf3;fill-opacity:1;fill-rule:nonzero;stroke:none"
             id="path387"
             inkscape:connector-curvature="0" /></g><path
           d="m 454.718,146.258 h -81.477 v 11.822 h 81.477 z"
           style="fill:#e24136;fill-opacity:1;fill-rule:nonzero;stroke:none"
           id="path389"
           inkscape:connector-curvature="0" /><g
           id="g391"><g
             id="g393" /><g
             id="g405"><g
               clip-path="url(#clipPath397)"
               id="g403"
               style="opacity:0.30000299"><g
                 transform="translate(454.7176,158.08)"
                 id="g401"><path
                   d="m 0,0 v -11.822 h -36.993 c -0.65,4.037 -4.148,7.107 -8.365,7.107 H -81.477 V 0 Z"
                   style="fill:#606060;fill-opacity:1;fill-rule:nonzero;stroke:none"
                   id="path399"
                   inkscape:connector-curvature="0" /></g></g></g></g><g
           id="g407"><g
             id="g409" /><g
             id="g421"><g
               clip-path="url(#clipPath413)"
               id="g419"
               style="opacity:0.30000299"><g
                 transform="translate(415.6404,158.0145)"
                 id="g417"><path
                   d="M 0,0 C 12.181,55.16 -6.88,89.97 -6.88,89.97 H 3.561 l 8.75,-33.9 3.609,-13.98 3,-11.61 L 22.53,16.49 26.801,0 Z"
                   style="fill:#606060;fill-opacity:1;fill-rule:nonzero;stroke:none"
                   id="path415"
                   inkscape:connector-curvature="0" /></g></g></g></g><g
           id="g423"><g
             id="g425" /><g
             id="g437"><g
               clip-path="url(#clipPath429)"
               id="g435"
               style="opacity:0.30000299"><g
                 transform="translate(410.1277,194.6845)"
                 id="g433"><path
                   d="m 0,0 c -2.836,-14.622 -7.341,-26.049 -10.062,-25.521 -2.721,0.528 -2.628,12.809 0.208,27.432 2.835,14.623 7.34,26.049 10.061,25.522 C 2.928,26.905 2.835,14.623 0,0"
                   style="fill:#fffcf3;fill-opacity:1;fill-rule:nonzero;stroke:none"
                   id="path431"
                   inkscape:connector-curvature="0" /></g></g></g></g><g
           id="g439"
           transform="translate(114.4822,158.0145)"><path
             d="m 0,0 h -56.92 l 4.27,16.49 3.6,13.99 3.01,11.61 3.6,13.98 8.76,33.9 h 10.44 l 8.75,-33.9 3.61,-13.98 3,-11.61 3.61,-13.99 z"
             style="fill:#f04736;fill-opacity:1;fill-rule:nonzero;stroke:none"
             id="path441"
             inkscape:connector-curvature="0" /></g><g
           id="g443"
           transform="translate(103.6004,200.1024)"><path
             d="m 0,0 h -35.159 l 3.603,13.985 h 27.953 z"
             style="fill:#fffcf3;fill-opacity:1;fill-rule:nonzero;stroke:none"
             id="path445"
             inkscape:connector-curvature="0" /></g><g
           id="g447"
           transform="translate(110.2088,174.5058)"><path
             d="m 0,0 h -48.376 l 3.603,13.985 h 41.17 z"
             style="fill:#fffcf3;fill-opacity:1;fill-rule:nonzero;stroke:none"
             id="path449"
             inkscape:connector-curvature="0" /></g><path
           d="M 126.76,146.258 H 45.282 v 11.822 h 81.478 z"
           style="fill:#e24136;fill-opacity:1;fill-rule:nonzero;stroke:none"
           id="path451"
           inkscape:connector-curvature="0" /><g
           id="g453"><g
             id="g455" /><g
             id="g467"><g
               clip-path="url(#clipPath459)"
               id="g465"
               style="opacity:0.30000299"><g
                 transform="translate(126.7596,158.08)"
                 id="g463"><path
                   d="m 0,0 v -11.822 h -36.993 c -0.65,4.037 -4.149,7.107 -8.365,7.107 h -36.12 V 0 Z"
                   style="fill:#606060;fill-opacity:1;fill-rule:nonzero;stroke:none"
                   id="path461"
                   inkscape:connector-curvature="0" /></g></g></g></g><g
           id="g469"><g
             id="g471" /><g
             id="g483"><g
               clip-path="url(#clipPath475)"
               id="g481"
               style="opacity:0.30000299"><g
                 transform="translate(87.6824,158.0145)"
                 id="g479"><path
                   d="M 0,0 C 12.18,55.16 -6.88,89.97 -6.88,89.97 H 3.56 l 8.75,-33.9 3.61,-13.98 3,-11.61 L 22.53,16.49 26.8,0 Z"
                   style="fill:#606060;fill-opacity:1;fill-rule:nonzero;stroke:none"
                   id="path477"
                   inkscape:connector-curvature="0" /></g></g></g></g><g
           id="g485"><g
             id="g487" /><g
             id="g499"><g
               clip-path="url(#clipPath491)"
               id="g497"
               style="opacity:0.30000299"><g
                 transform="translate(82.1687,194.6845)"
                 id="g495"><path
                   d="m 0,0 c -2.835,-14.622 -7.34,-26.049 -10.061,-25.521 -2.721,0.528 -2.628,12.809 0.207,27.432 C -7.018,16.534 -2.513,27.96 0.208,27.433 2.929,26.905 2.836,14.623 0,0"
                   style="fill:#fffcf3;fill-opacity:1;fill-rule:nonzero;stroke:none"
                   id="path493"
                   inkscape:connector-curvature="0" /></g></g></g></g></g></g><text
       transform="matrix(1,0,0,-1,193.4658,411.0117)"
       style="font-variant:normal;font-weight:600;font-stretch:normal;font-size:33.63159943px;font-family:'Montserrat SemiBold';-inkscape-font-specification:Montserrat-SemiBold;writing-mode:lr-tb;fill:#3a4950;fill-opacity:1;fill-rule:nonzero;stroke:none"
       id="text503"><tspan
         x="0 30.47023 55.122192 81.489365 101.6347"
         y="0"
         sodipodi:role="line"
         id="tspan501">Oops!</tspan></text>
<text
       transform="matrix(1,0,0,-1,124.8135,74.0371)"
       style="font-variant:normal;font-weight:600;font-stretch:normal;font-size:11.78629971px;font-family:'Montserrat SemiBold';-inkscape-font-specification:Montserrat-SemiBold;writing-mode:lr-tb;fill:#f04736;fill-opacity:1;fill-rule:nonzero;stroke:none"
       id="text507"><tspan
         x="0 10.230509 21.12105 32.011589 43.86861 54.759151 60.652298 70.281708 79.911118 89.54052 95.43367 102.17544 108.06859 117.82764 128.90558 140.04364 150.27414 156.1673 167.81216 179.43463 188.87546 194.7686 204.13872 215.99573 227.31058 238.95544"
         y="0"
         sodipodi:role="line"
         id="tspan505">ERROR 500 - INTERNAL SERVER ERROR</tspan></text>
</g>
</svg>